<svg width="12" height="15" viewBox="0 0 12 15" fill="none" xmlns="http://www.w3.org/2000/svg">
<path d="M11.1791 12.2895C11.1791 12.8757 10.9462 13.438 10.5316 13.8526C10.1171 14.2671 9.55481 14.5 8.96854 14.5H3.81065C3.22438 14.5 2.66213 14.2671 2.24757 13.8526C1.83302 13.438 1.60012 12.8757 1.60012 12.2895V3.44737H0.863281V1.23684H4.17907L4.91591 0.5H7.86328L8.60012 1.23684H11.9159V3.44737H11.1791V12.2895ZM2.33697 3.44737V12.2895C2.33697 12.6803 2.49223 13.0552 2.7686 13.3315C3.04497 13.6079 3.4198 13.7632 3.81065 13.7632H8.96854C9.35939 13.7632 9.73423 13.6079 10.0106 13.3315C10.287 13.0552 10.4422 12.6803 10.4422 12.2895V3.44737H2.33697ZM11.1791 2.71053V1.97368H8.2317L7.49486 1.23684H5.28433L4.54749 1.97368H1.60012V2.71053H11.1791ZM3.81065 4.92105H4.54749V12.2895H3.81065V4.92105ZM8.2317 4.92105H8.96854V12.2895H8.2317V4.92105Z" fill="#FF3838"/>
</svg>
