<svg width="17" height="15" viewBox="0 0 17 15" fill="none" xmlns="http://www.w3.org/2000/svg">
<path d="M7.11009 7.38073C6.42965 7.38073 5.76449 7.17896 5.19873 6.80093C4.63296 6.4229 4.192 5.88558 3.93161 5.25694C3.67121 4.6283 3.60308 3.93655 3.73583 3.26919C3.86858 2.60182 4.19624 1.98881 4.67738 1.50766C5.15853 1.02652 5.77154 0.698855 6.43891 0.566107C7.10627 0.43336 7.79802 0.501491 8.42666 0.761884C9.05531 1.02228 9.59262 1.46324 9.97065 2.029C10.3487 2.59477 10.5505 3.25993 10.5505 3.94037C10.548 4.85207 10.1848 5.72573 9.54012 6.3704C8.89545 7.01507 8.02179 7.37831 7.11009 7.38073ZM7.11009 1.87615C6.70183 1.87615 6.30273 1.99721 5.96327 2.22403C5.62381 2.45085 5.35924 2.77324 5.203 3.15043C5.04676 3.52761 5.00589 3.94266 5.08553 4.34308C5.16518 4.7435 5.36178 5.11131 5.65047 5.39999C5.93915 5.68868 6.30696 5.88528 6.70738 5.96492C7.1078 6.04457 7.52285 6.00369 7.90003 5.84746C8.27722 5.69122 8.59961 5.42665 8.82643 5.08719C9.05324 4.74773 9.17431 4.34863 9.17431 3.94037C9.17431 3.3929 8.95683 2.86786 8.56971 2.48074C8.1826 2.09363 7.65756 1.87615 7.11009 1.87615ZM0.688073 13.8028C0.505585 13.8028 0.330571 13.7303 0.201532 13.6012C0.0724933 13.4722 0 13.2972 0 13.1147C0 8.75688 4.98165 8.75688 7.11009 8.75688C7.77064 8.75688 8.3578 8.75688 8.88991 8.8211C9.07091 8.83518 9.239 8.92023 9.35758 9.0577C9.47615 9.19518 9.53558 9.37394 9.52293 9.55505C9.50657 9.73683 9.41958 9.90495 9.28064 10.0233C9.1417 10.1417 8.96189 10.2008 8.77981 10.1881C8.2844 10.1881 7.73394 10.133 7.11009 10.133C2.3578 10.133 1.37615 11.3257 1.37615 13.1147C1.37738 13.2054 1.36043 13.2954 1.32628 13.3794C1.29214 13.4635 1.24151 13.5398 1.17736 13.604C1.11322 13.6681 1.03688 13.7187 0.952841 13.7529C0.868802 13.787 0.778774 13.804 0.688073 13.8028ZM9.04587 14.5C8.86344 14.4998 8.68855 14.4272 8.55963 14.2982C8.48718 14.2291 8.43137 14.1445 8.3964 14.0508C8.36144 13.957 8.34824 13.8565 8.3578 13.7569L8.50459 11.9954C8.51592 11.8335 8.58417 11.6807 8.69725 11.5642L13.7615 6.5C14.1109 6.17631 14.5696 5.99648 15.0459 5.99648C15.5222 5.99648 15.9809 6.17631 16.3303 6.5C16.5025 6.67363 16.6384 6.87994 16.7297 7.10682C16.8211 7.33369 16.8662 7.57655 16.8624 7.8211C16.866 8.04652 16.8248 8.27042 16.7414 8.47985C16.6579 8.68929 16.5338 8.88011 16.3761 9.04129L11.3119 14.1055C11.1996 14.2207 11.05 14.2922 10.8899 14.3073L9.11009 14.4725L9.04587 14.5ZM9.85321 12.3532L9.79816 13.0505L10.5138 12.9862L15.4037 8.09633C15.4614 8.02711 15.4909 7.93865 15.4862 7.84863C15.4859 7.7209 15.4404 7.59742 15.3578 7.5C15.2676 7.43298 15.1582 7.39678 15.0459 7.39678C14.9335 7.39678 14.8241 7.43298 14.7339 7.5L9.85321 12.3532Z" fill="#555555"/>
</svg>
